<svg xmlns="http://www.w3.org/2000/svg" width="800" height="400"><defs><circle id="starTemplate" r="1.5" fill="#FFF" class="star" opacity=".14"/><circle id="starBlueTemplate" r="1.2" fill="#93C5FD" class="star" opacity=".16"/><circle id="clusterStarTemplate" r=".8" fill="#93C5FD" class="star" opacity=".12"/><circle id="clusterStarWhiteTemplate" r="1" fill="#FFF" class="star" opacity=".16"/><circle id="sparkleTinyTemplate" r=".844" fill="#FFF" class="sparkle" opacity=".7"/><circle id="sparkleSmallTemplate" r="1.013" fill="#FFF" class="sparkle" opacity=".7"/><circle id="sparkleMediumTemplate" r="1.406" fill="#FFF" class="sparkle" opacity=".7"/><circle id="sparkleLargeTemplate" r="1.856" fill="#FFF" class="sparkle" opacity=".7"/><circle id="sparkleXLargeTemplate" r="2.5" fill="#FFF" class="sparkle" opacity=".7"/><filter id="starGlow" width="200%" height="200%" x="-50%" y="-50%"><feDropShadow dx="0" dy="0" flood-color="#00CFFF" flood-opacity=".6" stdDeviation="2"/></filter><filter id="lineGlow" width="160%" height="160%" x="-30%" y="-30%"><feDropShadow dx="0" dy="0" flood-color="#00CFFF" flood-opacity=".5" stdDeviation="1.5"/></filter><filter id="mainLineGlow" width="200%" height="200%" x="-50%" y="-50%"><feDropShadow dx="0" dy="0" flood-color="#00CFFF" flood-opacity=".7" stdDeviation="2.5"/><feDropShadow dx="0" dy="0" flood-color="#E6FBFF" flood-opacity=".3" stdDeviation="1"/></filter><filter id="nebulaBlur" width="200%" height="200%" x="-50%" y="-50%"><feGaussianBlur stdDeviation="15"/></filter><radialGradient id="nebulaGradient" cx="50%" cy="50%" r="50%"><stop offset="0%" stop-color="#00CFFF" stop-opacity=".8"/><stop offset="100%" stop-color="#00CFFF" stop-opacity="0"/></radialGradient><radialGradient id="bgGradient" cx="50%" cy="50%" r="70%"><stop offset="0%" stop-color="#1B365D"/><stop offset="100%" stop-color="#000B1A"/></radialGradient><g id="diffractionRaySmallTemplate"><circle r="3.75" class="diffraction-ray-center"/><path d="M0-15 1.125 0h-2.25zM0 15 1.125 0h-2.25z" class="diffraction-ray"/><path d="M-15 0 0 1.125v-2.25zM15 0 0 1.125v-2.25z" class="diffraction-ray"/><path d="M0-15 1.125 0h-2.25zM0 15 1.125 0h-2.25z" class="diffraction-ray-side" style="transform:scale(.75) rotate(45deg)"/><path d="M-15 0 0 1.125v-2.25zM15 0 0 1.125v-2.25z" class="diffraction-ray-side" style="transform:scale(.75) rotate(45deg)"/></g><g id="diffractionRayMediumTemplate"><circle r="5" class="diffraction-ray-center"/><path d="M0-20 1.5 0h-3zM0 20 1.5 0h-3z" class="diffraction-ray"/><path d="M-20 0 0 1.5v-3zM20 0 0 1.5v-3z" class="diffraction-ray"/><path d="M0-20 1.5 0h-3zM0 20 1.5 0h-3z" class="diffraction-ray-side" style="transform:scale(.75) rotate(45deg)"/><path d="M-20 0 0 1.5v-3zM20 0 0 1.5v-3z" class="diffraction-ray-side" style="transform:scale(.75) rotate(45deg)"/></g><linearGradient id="lineGradient" x1="0%" x2="0%" y1="0%" y2="100%"><stop offset="0%" stop-color="#E6FBFF"/><stop offset="100%" stop-color="#00CFFF"/></linearGradient></defs><style>@keyframes pulse{0%,to{opacity:.4}50%{opacity:1}}@keyframes slow-pulse{0%,to{opacity:.3}50%{opacity:.8}}@keyframes line-pulse{0%,to{stroke-opacity:.1}50%{stroke-opacity:.8}}@keyframes sparkle{0%,to{opacity:.2}50%{opacity:.7}}@keyframes flare-scale{0%,25%,to{transform:scale(.5)}20%,5%{transform:scale(.8)}10%,15%{transform:scale(1.3)}}@keyframes flare-opacity{0%,25%,to{opacity:0}20%,5%{opacity:.3}10%{opacity:1}15%{opacity:.7}}@keyframes flare-rotate{0%{transform:rotate(0deg)}to{transform:rotate(360deg)}}@keyframes sparkle-large{0%,to{opacity:.5}50%{opacity:1}}.constellation-star{fill:#fff;animation:pulse 3s ease-in-out infinite;animation-fill-mode:forwards;filter:url(#starGlow)}.pulse-high{animation:pulse 2s ease-in-out infinite}.star{fill:#93c5fd;opacity:.5;animation:slow-pulse 4s ease-in-out infinite;filter:url(#starGlow)}.line{stroke:url(#lineGradient);stroke-width:2;stroke-linecap:round;stroke-opacity:.8;animation:line-pulse 6s ease-in-out infinite;filter:url(#lineGlow)}.sparkle{fill:#fff;opacity:.5;animation:sparkle 5s ease-in-out infinite}.diffraction-ray,.diffraction-ray-side{fill:#fff;filter:url(#starGlow)}.diffraction-ray-side{opacity:.5;transform:scale(.75) rotate(45deg)}.diffraction-ray-center{fill:#fff;opacity:1;animation:pulse 4s ease-in-out infinite;filter:url(#starGlow)}</style><rect width="100%" height="100%" fill="url(#bgGradient)" rx="15"/><ellipse cx="400" cy="200" fill="url(#nebulaGradient)" filter="url(#nebulaBlur)" opacity=".3" rx="300" ry="120"/><ellipse cx="100" cy="50" fill="url(#nebulaGradient)" filter="url(#nebulaBlur)" opacity=".15" rx="80" ry="40" transform="rotate(30 100 50)"/><ellipse cx="700" cy="50" fill="url(#nebulaGradient)" filter="url(#nebulaBlur)" opacity=".2" rx="100" ry="50"/><ellipse cx="100" cy="350" fill="url(#nebulaGradient)" filter="url(#nebulaBlur)" opacity=".25" rx="120" ry="60" transform="rotate(-45 100 350)"/><circle cx="725" cy="350" r="50" fill="url(#nebulaGradient)" filter="url(#nebulaBlur)" opacity=".1"/><ellipse cx="300" cy="100" fill="url(#nebulaGradient)" filter="url(#nebulaBlur)" opacity=".12" rx="60" ry="30" transform="rotate(60 300 100)"/><ellipse cx="500" cy="300" fill="url(#nebulaGradient)" filter="url(#nebulaBlur)" opacity=".18" rx="70" ry="35" transform="rotate(-20 500 300)"/><path d="m200 80 70 70M270 150l120 15M390 165l130-55M520 110l100 35M620 145l60 90M270 150l-10 90M260 240l130-75" class="line" filter="url(#mainLineGlow)" style="stroke-width:1.5"/><g filter="url(#starGlow)" transform="translate(200 80)"><use class="diffraction-ray-group" href="#diffractionRaySmallTemplate" style="transform:scale(.75);opacity:0;animation:flare-opacity 8s ease-in-out infinite,flare-scale .25s ease-in-out infinite,flare-rotate 18s linear infinite;animation-delay:5s"/></g><circle cx="200" cy="80" r="2.25" class="constellation-star pulse-high" style="opacity:.7"/><circle cx="270" cy="150" r="2.25" class="constellation-star pulse-high" style="opacity:.7"/><circle cx="260" cy="240" r="2.25" class="constellation-star pulse-high" style="opacity:.7"/><circle cx="390" cy="165" r="2.25" class="constellation-star pulse-high" style="opacity:.7"/><circle cx="520" cy="110" r="2.25" class="constellation-star pulse-high" style="opacity:.7"/><g filter="url(#starGlow)" transform="translate(620 145)"><use class="diffraction-ray-group" href="#diffractionRaySmallTemplate" style="transform:scale(.9375);opacity:0;animation:flare-opacity 6s ease-in-out infinite,flare-scale .25s ease-in-out infinite,flare-rotate 18s linear infinite;animation-delay:1s"/></g><circle cx="620" cy="145" r="2.25" class="constellation-star pulse-high" style="opacity:.7"/><circle cx="680" cy="235" r="2.25" class="constellation-star pulse-high" style="opacity:.7"/><g transform="rotate(-45 224.497 125)"><path d="m100 60 40 30m0 0 20 50m0 0 30-20" class="line" filter="url(#lineGlow)" style="opacity:.2;stroke-width:1.5"/><circle cx="100" cy="60" r="2" class="constellation-star" style="opacity:.3"/><circle cx="140" cy="90" r="2" class="constellation-star" style="opacity:.3"/><circle cx="160" cy="140" r="2" class="constellation-star" style="opacity:.3"/><circle cx="190" cy="120" r="2" class="constellation-star" style="opacity:.3"/></g><path d="m660 110 15-15M645 75l15-15M660 85l15 10M675 95l-30-20" class="line" filter="url(#lineGlow)" style="opacity:.2;stroke-width:1.5"/><circle cx="660" cy="110" r="2" class="constellation-star" style="opacity:.2"/><circle cx="660" cy="85" r="2" class="constellation-star" style="opacity:.2"/><circle cx="675" cy="95" r="2" class="constellation-star" style="opacity:.2"/><circle cx="645" cy="75" r="2" class="constellation-star" style="opacity:.2"/><circle cx="660" cy="60" r="2" class="constellation-star" style="opacity:.2"/><path d="m60 370 30-40M90 330l30-30" class="line" filter="url(#lineGlow)" style="opacity:.2;stroke-width:1.5"/><circle cx="60" cy="370" r="2" class="constellation-star" style="opacity:.3"/><circle cx="90" cy="330" r="2.2" class="constellation-star" style="opacity:.3"/><g filter="url(#starGlow)" transform="matrix(.5 0 0 .5 90 330)"><use class="diffraction-ray-group" href="#diffractionRayMediumTemplate" style="opacity:0;animation:flare-opacity 4s ease-in-out infinite,flare-scale .25s ease-in-out infinite,flare-rotate 18s linear infinite;animation-delay:7s"/></g><circle cx="120" cy="300" r="2" class="constellation-star" style="opacity:.3"/><path d="m580 380 90-20M670 360l30-40M700 320l80 20M780 340l-40 50M740 390l-70-30" class="line" filter="url(#lineGlow)" style="opacity:.1;stroke-width:1"/><circle cx="580" cy="380" r="1.3" fill="#FFF" class="star" opacity=".21"/><circle cx="670" cy="360" r="2.5" class="sparkle" filter="url(#starGlow)" style="animation:sparkle 4s ease-in-out infinite"/><g filter="url(#starGlow)" transform="matrix(.66 0 0 .66 670 360)"><use class="diffraction-ray-group" href="#diffractionRayMediumTemplate" style="opacity:0;animation:flare-opacity 10s ease-in-out infinite,flare-scale .25s ease-in-out infinite,flare-rotate 18s linear infinite;animation-delay:12s"/></g><use x="670" y="360" filter="url(#starGlow)" href="#sparkleXLargeTemplate" style="animation:sparkle-large 6s ease-in-out infinite"/><use x="700" y="320" filter="url(#starGlow)" href="#sparkleXLargeTemplate" style="animation:sparkle-large 6s ease-in-out infinite"/><use x="780" y="340" filter="url(#starGlow)" href="#sparkleXLargeTemplate" style="animation:sparkle-large 6s ease-in-out infinite"/><use x="740" y="390" filter="url(#starGlow)" href="#sparkleLargeTemplate" style="animation:sparkle-large 6s ease-in-out infinite"/><path d="m320 60 60-20M380 40l40 10M420 50l30-20" class="line" filter="url(#lineGlow)" style="opacity:.1;stroke-width:1"/><use x="500" y="250" filter="url(#starGlow)" href="#sparkleLargeTemplate" style="animation:sparkle-large 6s ease-in-out infinite"/><use x="80" y="60" filter="url(#starGlow)" href="#sparkleMediumTemplate" style="animation:sparkle 4s ease-in-out infinite"/><use x="740" y="70" filter="url(#starGlow)" href="#sparkleLargeTemplate" style="animation:sparkle-large 6s ease-in-out infinite"/><use x="100" y="200" filter="url(#starGlow)" href="#sparkleSmallTemplate" style="animation:sparkle 3s ease-in-out infinite"/><use x="770" y="250" filter="url(#starGlow)" href="#sparkleMediumTemplate" style="animation:sparkle 4s ease-in-out infinite"/><use x="400" y="350" filter="url(#starGlow)" href="#sparkleLargeTemplate" style="animation:sparkle-large 6s ease-in-out infinite"/><use x="600" y="50" filter="url(#starGlow)" href="#sparkleLargeTemplate" style="animation:sparkle-large 6s ease-in-out infinite"/><use x="150" y="370" filter="url(#starGlow)" href="#sparkleSmallTemplate" style="animation:sparkle 3s ease-in-out infinite"/><use x="380" y="40" filter="url(#starGlow)" href="#sparkleMediumTemplate" style="animation:sparkle 4s ease-in-out infinite"/><use x="420" y="50" filter="url(#starGlow)" href="#sparkleSmallTemplate" style="animation:sparkle 3s ease-in-out infinite"/><use x="450" y="30" filter="url(#starGlow)" href="#sparkleSmallTemplate" style="animation:sparkle 3s ease-in-out infinite"/><use x="500" y="70" filter="url(#starGlow)" href="#sparkleMediumTemplate" style="animation:sparkle 4s ease-in-out infinite"/><use x="320" y="60" filter="url(#starGlow)" href="#sparkleSmallTemplate" style="animation:sparkle 3s ease-in-out infinite"/><use x="200" y="20" filter="url(#starGlow)" href="#sparkleTinyTemplate" style="animation:sparkle 3s ease-in-out infinite"/><use x="610" y="30" filter="url(#starGlow)" href="#sparkleMediumTemplate" style="animation:sparkle 4s ease-in-out infinite"/><use x="720" y="150" filter="url(#starGlow)" href="#sparkleSmallTemplate" style="animation:sparkle 3s ease-in-out infinite"/><use x="125" y="40" href="#starBlueTemplate"/><use x="140" y="320" href="#starTemplate"/><use x="250" y="100" href="#starTemplate"/><use x="330" y="44" href="#starBlueTemplate"/><use x="420" y="380" href="#starTemplate"/><use x="720" y="88" href="#starBlueTemplate"/><use x="755" y="300" href="#starTemplate"/><use x="230" y="390" href="#starBlueTemplate"/><use x="690" y="55" href="#starTemplate"/><use x="63" y="185" href="#starBlueTemplate"/><use x="350" y="370" href="#starTemplate"/><use x="180" y="200" href="#starBlueTemplate"/><use x="700" y="340" href="#starBlueTemplate"/><use x="660" y="280" href="#starTemplate"/><use x="270" y="280" href="#starTemplate"/><use x="390" y="130" href="#starBlueTemplate"/><use x="600" y="85" href="#starTemplate"/><use x="105" y="270" href="#starBlueTemplate"/><use x="185" y="370" href="#starTemplate"/><use x="495" y="47" href="#starBlueTemplate"/><use x="330" y="260" href="#starTemplate"/><use x="720" y="200" href="#starBlueTemplate"/><use x="595" y="175" href="#starTemplate"/><use x="470" y="320" href="#starBlueTemplate"/><use x="180" y="60" href="#starTemplate"/><use x="655" y="370" href="#starBlueTemplate"/><use x="300" y="330" href="#starTemplate"/><use x="570" y="210" href="#starBlueTemplate"/><use x="80" y="100" href="#starTemplate"/><use x="40" y="25" href="#starTemplate"/><use x="400" y="280" href="#clusterStarTemplate"/><use x="420" y="290" href="#clusterStarWhiteTemplate"/><use x="380" y="295" href="#clusterStarTemplate"/><use x="410" y="270" href="#clusterStarWhiteTemplate"/><use x="395" y="285" href="#clusterStarTemplate"/><use x="425" y="275" href="#clusterStarWhiteTemplate"/><use x="385" y="280" href="#clusterStarTemplate"/><use x="415" y="285" href="#clusterStarWhiteTemplate"/><use x="590" y="285" href="#clusterStarTemplate"/><use x="610" y="295" href="#clusterStarWhiteTemplate"/><use x="585" y="290" href="#clusterStarTemplate"/><use x="615" y="300" href="#clusterStarWhiteTemplate"/><use x="595" y="288" href="#clusterStarTemplate"/><use x="605" y="302" href="#clusterStarWhiteTemplate"/><use x="580" y="292" href="#clusterStarTemplate"/><use x="620" y="298" href="#clusterStarWhiteTemplate"/><use x="440" y="85" href="#clusterStarTemplate"/><use x="460" y="95" href="#clusterStarWhiteTemplate"/><use x="420" y="90" href="#clusterStarTemplate"/><use x="470" y="100" href="#clusterStarWhiteTemplate"/><use x="430" y="88" href="#clusterStarTemplate"/><use x="450" y="102" href="#clusterStarWhiteTemplate"/><use x="415" y="92" href="#clusterStarTemplate"/><use x="465" y="98" href="#clusterStarWhiteTemplate"/><use x="445" y="93" href="#clusterStarTemplate"/><use x="455" y="87" href="#clusterStarWhiteTemplate"/><use x="425" y="97" href="#clusterStarTemplate"/><use x="475" y="92" href="#clusterStarWhiteTemplate"/><use x="50" y="120" href="#clusterStarTemplate"/><use x="70" y="130" href="#clusterStarWhiteTemplate"/><use x="40" y="125" href="#clusterStarTemplate"/><use x="80" y="135" href="#clusterStarWhiteTemplate"/><use x="60" y="128" href="#clusterStarTemplate"/><use x="75" y="140" href="#clusterStarWhiteTemplate"/><use x="85" y="138" href="#clusterStarWhiteTemplate"/><use x="35" y="250" href="#clusterStarTemplate"/><use x="75" y="270" href="#clusterStarWhiteTemplate"/><use x="30" y="285" href="#clusterStarTemplate"/><use x="80" y="260" href="#clusterStarWhiteTemplate"/><use x="45" y="275" href="#clusterStarTemplate"/><use x="70" y="290" href="#clusterStarWhiteTemplate"/><use x="55" y="265" href="#clusterStarWhiteTemplate"/><g filter="url(#starGlow)" transform="matrix(.33 0 0 .33 80 100)"><use class="diffraction-ray-group" href="#diffractionRayMediumTemplate" style="opacity:0;animation:flare-opacity 3s ease-in-out infinite,flare-scale .25s ease-in-out infinite,flare-rotate 18s linear infinite;animation-delay:4s"/></g></svg>