<svg xmlns="http://www.w3.org/2000/svg" width="800" height="400">
  <defs>
    <!-- Nebula gradient -->
    <radialGradient id="nebulaGradient" cx="50%" cy="50%" r="50%">
      <stop offset="0%" stop-color="#00CFFF" stop-opacity="0.8" />
      <stop offset="100%" stop-color="#00CFFF" stop-opacity="0" />
    </radialGradient>
    <!-- Background gradient: deep cosmic blues -->
    <radialGradient id="bgGradient" cx="50%" cy="50%" r="70%">
      <stop offset="0%" stop-color="#1B365D" />
      <stop offset="100%" stop-color="#000B1A" />
    </radialGradient>

    <!-- Line gradient: cyan neon -->
    <linearGradient id="lineGradient" x1="0%" y1="0%" x2="0%" y2="100%">
      <stop offset="0%" stop-color="#E6FBFF" />
      <stop offset="100%" stop-color="#00CFFF" />
    </linearGradient>

    <!-- Star glow filter - optimized -->
    <filter id="starGlow" x="-50%" y="-50%" width="200%" height="200%">
      <feDropShadow dx="0" dy="0" stdDeviation="2" flood-color="#00CFFF" flood-opacity="0.6" />
    </filter>

    <!-- Line glow - optimized -->
    <filter id="lineGlow" x="-30%" y="-30%" width="160%" height="160%">
      <feDropShadow dx="0" dy="0" stdDeviation="1.5" flood-color="#00CFFF" flood-opacity="0.5" />
    </filter>

    <!-- Main constellation line glow - more intense -->
    <filter id="mainLineGlow" x="-50%" y="-50%" width="200%" height="200%">
      <feDropShadow dx="0" dy="0" stdDeviation="2.5" flood-color="#00CFFF" flood-opacity="0.7" />
      <feDropShadow dx="0" dy="0" stdDeviation="1" flood-color="#E6FBFF" flood-opacity="0.3" />
    </filter>

    <!-- Nebula blur - optimized -->
    <filter id="nebulaBlur" x="-50%" y="-50%" width="200%" height="200%">
      <feGaussianBlur stdDeviation="15" />
    </filter>

    <!-- Star templates for reuse -->
    <circle id="starTemplate" r="1.5" fill="#FFFFFF" opacity="0.14" class="star" />
    <circle id="starBlueTemplate" r="1.2" fill="#93C5FD" opacity="0.16" class="star" />
    <circle id="clusterStarTemplate" r="0.8" fill="#93C5FD" opacity="0.12" class="star" />
    <circle id="clusterStarWhiteTemplate" r="1.0" fill="#FFFFFF" opacity="0.16" class="star" />
    
    <!-- Sparkle templates for reuse -->
    <circle id="sparkleTinyTemplate" r="0.844" fill="#FFFFFF" opacity="0.7" class="sparkle" />
    <circle id="sparkleSmallTemplate" r="1.013" fill="#FFFFFF" opacity="0.7" class="sparkle" />
    <circle id="sparkleMediumTemplate" r="1.406" fill="#FFFFFF" opacity="0.7" class="sparkle" />
    <circle id="sparkleLargeTemplate" r="1.856" fill="#FFFFFF" opacity="0.7" class="sparkle" />
    <circle id="sparkleXLargeTemplate" r="2.5" fill="#FFFFFF" opacity="0.7" class="sparkle" />

    <!-- Diffraction ray templates -->
    <g id="diffractionRaySmallTemplate">
      <circle r="3.75" class="diffraction-ray-center" />
      <polygon points="0,-15 1.125,0 -1.125,0" class="diffraction-ray" />
      <polygon points="0,15 1.125,0 -1.125,0" class="diffraction-ray" />
      <polygon points="-15,0 0,1.125 0,-1.125" class="diffraction-ray" />
      <polygon points="15,0 0,1.125 0,-1.125" class="diffraction-ray" />

      <polygon points="0,-15 1.125,0 -1.125,0" class="diffraction-ray-side" style="transform: scale(0.75) rotate(45deg);" />
      <polygon points="0,15 1.125,0 -1.125,0" class="diffraction-ray-side" style="transform: scale(0.75) rotate(45deg);" />
      <polygon points="-15,0 0,1.125 0,-1.125" class="diffraction-ray-side" style="transform: scale(0.75) rotate(45deg);" />
      <polygon points="15,0 0,1.125 0,-1.125" class="diffraction-ray-side" style="transform: scale(0.75) rotate(45deg);" />
    </g>

    <g id="diffractionRayMediumTemplate">
      <circle r="5" class="diffraction-ray-center" />
      <polygon points="0,-20 1.5,0 -1.5,0" class="diffraction-ray" />
      <polygon points="0,20 1.5,0 -1.5,0" class="diffraction-ray" />
      <polygon points="-20,0 0,1.5 0,-1.5" class="diffraction-ray" />
      <polygon points="20,0 0,1.5 0,-1.5" class="diffraction-ray" />

      <polygon points="0,-20 1.5,0 -1.5,0" class="diffraction-ray-side" style="transform: scale(0.75) rotate(45deg);" />
      <polygon points="0,20 1.5,0 -1.5,0" class="diffraction-ray-side" style="transform: scale(0.75) rotate(45deg);" />
      <polygon points="-20,0 0,1.5 0,-1.5" class="diffraction-ray-side" style="transform: scale(0.75) rotate(45deg);" />
      <polygon points="20,0 0,1.5 0,-1.5" class="diffraction-ray-side" style="transform: scale(0.75) rotate(45deg);" />
    </g>
  </defs>
  <style>
    /* Consolidated animations - reduced from 10 to 4 keyframes */
    @keyframes pulse {
      0%, 100% { opacity: 0.4; }
      50% { opacity: 1; }
    }

    @keyframes slow-pulse {
      0%, 100% { opacity: 0.3; }
      50% { opacity: 0.8; }
    }

    @keyframes line-pulse {
      0%, 100% { stroke-opacity: 0.1; }
      50% { stroke-opacity: 0.8; }
    }

    @keyframes sparkle {
      0%, 100% { opacity: 0.2; }
      50% { opacity: 0.7; }
    }

    @keyframes flare-scale {
      0% { transform: scale(0.5); }
      5% { transform: scale(0.8); }
      10% { transform: scale(1.3); }
      15% { transform: scale(1.3); }
      20% { transform: scale(0.8); }
      25% { transform: scale(0.5); }
      100% { transform: scale(0.5); }
    }

    @keyframes flare-opacity {
      0% { opacity: 0; }
      5% { opacity: 0.3; }
      10% { opacity: 1; }
      15% { opacity: 0.7; }
      20% { opacity: 0.3; }
      25% { opacity: 0.0; }
      100% { opacity: 0; }
    }

    @keyframes flare-rotate {
      0% { transform: rotate(0deg); }
      100% { transform: rotate(360deg); }
    }

    @keyframes sparkle-large {
      0%, 100% { opacity: 0.5; }
      50% { opacity: 1; }
    }

    /* Consolidated classes - removed duplicates */
    .constellation-star {
      fill: #ffffff;
      animation: pulse 3s ease-in-out infinite;
      animation-fill-mode: forwards;
      filter: url(#starGlow);
    }

    .pulse-high {
      animation: pulse 2s ease-in-out infinite;
    }

    .star {
      fill: #93C5FD;
      opacity: 0.5;
      animation: slow-pulse 4s ease-in-out infinite;
      filter: url(#starGlow);
    }

    .line {
      stroke: url(#lineGradient);
      stroke-width: 2;
      stroke-linecap: round;
      stroke-opacity: 0.8;
      animation: line-pulse 6s ease-in-out infinite;
      filter: url(#lineGlow);
    }

    .sparkle {
      fill: #ffffff;
      opacity: 0.5;
      animation: sparkle 5s ease-in-out infinite;
    }

    /* Diffraction ray styles */
    .diffraction-ray {
      fill: #ffffff;
      filter: url(#starGlow);
    }

    .diffraction-ray-side {
      fill: #ffffff;
      opacity: 0.5;
      filter: url(#starGlow);
      transform: scale(0.75) rotate(45deg);
    }

    .diffraction-ray-center {
      fill: #ffffff;
      opacity: 1;
      animation: pulse 4s ease-in-out infinite;
      filter: url(#starGlow);
    }

    .nebula {
      fill: #2A4A80;
      opacity: 0.3;
    }
  </style>

  <!-- Background -->
  <rect width="100%" height="100%" rx="15" fill="url(#bgGradient)" />

  <!-- Nebulas -->
  <ellipse cx="400" cy="200" rx="300" ry="120" fill="url(#nebulaGradient)" filter="url(#nebulaBlur)" opacity="0.3" />
  <ellipse cx="100" cy="50" rx="80" ry="40" fill="url(#nebulaGradient)" filter="url(#nebulaBlur)" opacity="0.15"
    transform="rotate(30, 100, 50)" />
  <ellipse cx="700" cy="50" rx="100" ry="50" fill="url(#nebulaGradient)" filter="url(#nebulaBlur)" opacity="0.2" />
  <ellipse cx="100" cy="350" rx="120" ry="60" fill="url(#nebulaGradient)" filter="url(#nebulaBlur)" opacity="0.25"
    transform="rotate(-45, 100, 350)" />
  <circle cx="725" cy="350" r="50" fill="url(#nebulaGradient)" filter="url(#nebulaBlur)" opacity="0.1" />
  <ellipse cx="300" cy="100" rx="60" ry="30" fill="url(#nebulaGradient)" filter="url(#nebulaBlur)" opacity="0.12"
    transform="rotate(60, 300, 100)" />
  <ellipse cx="500" cy="300" rx="70" ry="35" fill="url(#nebulaGradient)" filter="url(#nebulaBlur)" opacity="0.18"
    transform="rotate(-20, 500, 300)" />


  <!-- Primary constellation -->
  <path d="M 200 80 L 270 150" class="line" filter="url(#mainLineGlow)" style="stroke-width: 1.5;" />
  <path d="M 270 150 L 390 165" class="line" filter="url(#mainLineGlow)" style="stroke-width: 1.5;" />
  <path d="M 390 165 L 520 110" class="line" filter="url(#mainLineGlow)" style="stroke-width: 1.5;" />
  <path d="M 520 110 L 620 145" class="line" filter="url(#mainLineGlow)" style="stroke-width: 1.5;" />
  <path d="M 620 145 L 680 235" class="line" filter="url(#mainLineGlow)" style="stroke-width: 1.5;" />
  <path d="M 270 150 L 260 240" class="line" filter="url(#mainLineGlow)" style="stroke-width: 1.5;" />
  <path d="M 260 240 L 390 165" class="line" filter="url(#mainLineGlow)" style="stroke-width: 1.5;" />

  <!-- Diffraction rays 1 -->
  <g transform="translate(200, 80)" filter="url(#starGlow)">
    <use href="#diffractionRaySmallTemplate" class="diffraction-ray-group" style="transform: scale(0.75); opacity: 0; animation: flare-opacity 8s ease-in-out infinite, flare-scale 0.25s ease-in-out infinite, flare-rotate 18s linear infinite; animation-delay: 5s;" />
  </g>
  <circle cx="200" cy="80" r="2.25" class="constellation-star pulse-high" style="opacity: 0.7;" />
  <circle cx="270" cy="150" r="2.25" class="constellation-star pulse-high" style="opacity: 0.7;" />
  <circle cx="260" cy="240" r="2.25" class="constellation-star pulse-high" style="opacity: 0.7;" />
  <circle cx="390" cy="165" r="2.25" class="constellation-star pulse-high" style="opacity: 0.7;" />
  <circle cx="520" cy="110" r="2.25" class="constellation-star pulse-high" style="opacity: 0.7;" />
  <!-- Diffraction rays 2 -->
  <g transform="translate(620, 145)" filter="url(#starGlow)">
    <use href="#diffractionRaySmallTemplate" class="diffraction-ray-group" style="transform: scale(0.9375); opacity: 0; animation: flare-opacity 6s ease-in-out infinite, flare-scale 0.25s ease-in-out infinite, flare-rotate 18s linear infinite; animation-delay: 1s;" />
  </g>
  <circle cx="620" cy="145" r="2.25" class="constellation-star pulse-high" style="opacity: 0.7;" />
  <circle cx="680" cy="235" r="2.25" class="constellation-star pulse-high" style="opacity: 0.7;" />


  <!-- Distant constellation 1, Left -->
  <g transform="translate(0, 70) rotate(-45, 140, 90)">
    <path d="m100 60 40 30m0 0 20 50m0 0 30 -20" style="opacity:0.2; stroke-width:1.5" class="line"
      filter="url(#lineGlow)" />
    <circle cx="100" cy="60" r="2" class="constellation-star" style="opacity:0.3;" />
    <circle cx="140" cy="90" r="2" class="constellation-star" style="opacity:0.3;" />
    <circle cx="160" cy="140" r="2" class="constellation-star" style="opacity:0.3;" />
    <circle cx="190" cy="120" r="2" class="constellation-star" style="opacity:0.3;" />
  </g>

  <!-- Distant constellation 2, Right -->
  <path d="M 660 110 L 675 95" style="opacity:0.2; stroke-width:1.5" class="line" filter="url(#lineGlow)" />
  <path d="M 645 75 L 660 60" style="opacity:0.2; stroke-width:1.5" class="line" filter="url(#lineGlow)" />
  <path d="M 660 85 L 675 95" style="opacity:0.2; stroke-width:1.5" class="line" filter="url(#lineGlow)" />
  <path d="M 675 95 L 645 75" style="opacity:0.2; stroke-width:1.5" class="line" filter="url(#lineGlow)" />
  <circle cx="660" cy="110" r="2" class="constellation-star" style="opacity:0.2;" />
  <circle cx="660" cy="85" r="2" class="constellation-star" style="opacity:0.2;" />
  <circle cx="675" cy="95" r="2" class="constellation-star" style="opacity:0.2;" />
  <circle cx="645" cy="75" r="2" class="constellation-star" style="opacity:0.2;" />
  <circle cx="660" cy="60" r="2" class="constellation-star" style="opacity:0.2;" />


  <!-- Distant constellation 3, Left Bottom -->
  <path d="M 60 370 L 90 330" style="opacity:0.2; stroke-width:1.5" class="line" filter="url(#lineGlow)" />
  <path d="M 90 330 L 120 300" style="opacity:0.2; stroke-width:1.5" class="line" filter="url(#lineGlow)" />
  <circle cx="60" cy="370" r="2" class="constellation-star" style="opacity:0.3;" />
  <circle cx="90" cy="330" r="2.2" class="constellation-star" style="opacity:0.3;" />
  <!-- Diffraction rays 3 -->
  <g transform="translate(90, 330), scale(0.5)" filter="url(#starGlow)">
    <use href="#diffractionRayMediumTemplate" class="diffraction-ray-group" style="opacity: 0; animation: flare-opacity 4s ease-in-out infinite, flare-scale 0.25s ease-in-out infinite, flare-rotate 18s linear infinite; animation-delay: 7s;" />
  </g>
  <circle cx="120" cy="300" r="2" class="constellation-star" style="opacity:0.3;" />

  <!-- Distanter constellation 4, Right Bottom -->
  <path d="M 580 380 L 670 360" style="opacity:0.1; stroke-width:1" class="line" filter="url(#lineGlow)" />
  <path d="M 670 360 L 700 320" style="opacity:0.1; stroke-width:1" class="line" filter="url(#lineGlow)" />
  <path d="M 700 320 L 780 340" style="opacity:0.1; stroke-width:1" class="line" filter="url(#lineGlow)" />
  <path d="M 780 340 L 740 390" style="opacity:0.1; stroke-width:1" class="line" filter="url(#lineGlow)" />
  <path d="M 740 390 L 670 360" style="opacity:0.1; stroke-width:1" class="line" filter="url(#lineGlow)" />
  <circle cx="580" cy="380" r="1.3" fill="#FFFFFF" opacity="0.21" class="star" />
  <circle cx="670" cy="360" r="2.5" class="sparkle" style="animation: sparkle 4s ease-in-out infinite;" filter="url(#starGlow)" />
  <!-- Diffraction rays 4 -->
  <g transform="translate(670, 360), scale(0.66)" filter="url(#starGlow)">
    <use href="#diffractionRayMediumTemplate" class="diffraction-ray-group" style="opacity: 0; animation: flare-opacity 10s ease-in-out infinite, flare-scale 0.25s ease-in-out infinite, flare-rotate 18s linear infinite; animation-delay: 12s;" />
  </g>
  <use href="#sparkleXLargeTemplate" x="670" y="360" style="animation: sparkle-large 6s ease-in-out infinite;" filter="url(#starGlow)" />
  <use href="#sparkleXLargeTemplate" x="700" y="320" style="animation: sparkle-large 6s ease-in-out infinite;" filter="url(#starGlow)" />
  <use href="#sparkleXLargeTemplate" x="780" y="340" style="animation: sparkle-large 6s ease-in-out infinite;" filter="url(#starGlow)" />
  <use href="#sparkleLargeTemplate" x="740" y="390" style="animation: sparkle-large 6s ease-in-out infinite;" filter="url(#starGlow)" />

  <!-- Distanter constellation 5, Middle Top -->
  <path d="M 320 60 L 380 40" style="opacity:0.1; stroke-width:1;" class="line" filter="url(#lineGlow)" />
  <path d="M 380 40 L 420 50" style="opacity:0.1; stroke-width:1;" class="line" filter="url(#lineGlow)" />
  <path d="M 420 50 L 450 30" style="opacity:0.1; stroke-width:1;" class="line" filter="url(#lineGlow)" />

  <!-- Sparkles -->
  <use href="#sparkleLargeTemplate" x="500" y="250" style="animation: sparkle-large 6s ease-in-out infinite;" filter="url(#starGlow)" />
  <use href="#sparkleMediumTemplate" x="80" y="60" style="animation: sparkle 4s ease-in-out infinite;" filter="url(#starGlow)" />
  <use href="#sparkleLargeTemplate" x="740" y="70" style="animation: sparkle-large 6s ease-in-out infinite;" filter="url(#starGlow)" />
  <use href="#sparkleSmallTemplate" x="100" y="200" style="animation: sparkle 3s ease-in-out infinite;" filter="url(#starGlow)" />
  <use href="#sparkleMediumTemplate" x="770" y="250" style="animation: sparkle 4s ease-in-out infinite;" filter="url(#starGlow)" />
  <use href="#sparkleLargeTemplate" x="400" y="350" style="animation: sparkle-large 6s ease-in-out infinite;" filter="url(#starGlow)" />
  <use href="#sparkleLargeTemplate" x="600" y="50" style="animation: sparkle-large 6s ease-in-out infinite;" filter="url(#starGlow)" />
  <use href="#sparkleSmallTemplate" x="150" y="370" style="animation: sparkle 3s ease-in-out infinite;" filter="url(#starGlow)" />
  <use href="#sparkleMediumTemplate" x="380" y="40" style="animation: sparkle 4s ease-in-out infinite;" filter="url(#starGlow)" />
  <use href="#sparkleSmallTemplate" x="420" y="50" style="animation: sparkle 3s ease-in-out infinite;" filter="url(#starGlow)" />
  <use href="#sparkleSmallTemplate" x="450" y="30" style="animation: sparkle 3s ease-in-out infinite;" filter="url(#starGlow)" />
  <use href="#sparkleMediumTemplate" x="500" y="70" style="animation: sparkle 4s ease-in-out infinite;" filter="url(#starGlow)" />
  <use href="#sparkleSmallTemplate" x="320" y="60" style="animation: sparkle 3s ease-in-out infinite;" filter="url(#starGlow)" />
  <use href="#sparkleTinyTemplate" x="200" y="20" style="animation: sparkle 3s ease-in-out infinite;" filter="url(#starGlow)" />
  <use href="#sparkleMediumTemplate" x="610" y="30" style="animation: sparkle 4s ease-in-out infinite;" filter="url(#starGlow)" />
  <use href="#sparkleSmallTemplate" x="720" y="150" style="animation: sparkle 3s ease-in-out infinite;" filter="url(#starGlow)" />

  <!-- Background star field -->
  <use href="#starBlueTemplate" x="125" y="40" />
  <use href="#starTemplate" x="140" y="320" />
  <use href="#starTemplate" x="250" y="100" />
  <use href="#starBlueTemplate" x="330" y="44" />
  <use href="#starTemplate" x="420" y="380" />
  <use href="#starBlueTemplate" x="720" y="88" />
  <use href="#starTemplate" x="755" y="300" />
  <use href="#starBlueTemplate" x="230" y="390" />
  <use href="#starTemplate" x="690" y="55" />
  <use href="#starBlueTemplate" x="63" y="185" />
  <use href="#starTemplate" x="350" y="370" />
  <use href="#starBlueTemplate" x="180" y="200" />
  <use href="#starBlueTemplate" x="700" y="340" />
  <use href="#starTemplate" x="660" y="280" />
  <use href="#starTemplate" x="270" y="280" />
  <use href="#starBlueTemplate" x="390" y="130" />
  <use href="#starTemplate" x="600" y="85" />
  <use href="#starBlueTemplate" x="105" y="270" />
  <use href="#starTemplate" x="185" y="370" />
  <use href="#starBlueTemplate" x="495" y="47" />
  <use href="#starTemplate" x="330" y="260" />
  <use href="#starBlueTemplate" x="720" y="200" />
  <use href="#starTemplate" x="595" y="175" />
  <use href="#starBlueTemplate" x="470" y="320" />
  <use href="#starTemplate" x="180" y="60" />
  <use href="#starBlueTemplate" x="655" y="370" />
  <use href="#starTemplate" x="300" y="330" />
  <use href="#starBlueTemplate" x="570" y="210" />
  <use href="#starTemplate" x="80" y="100" />
  <use href="#starTemplate" x="40" y="25" />

  <!-- Cluster 1 -->
  <use href="#clusterStarTemplate" x="400" y="280" />
  <use href="#clusterStarWhiteTemplate" x="420" y="290" />
  <use href="#clusterStarTemplate" x="380" y="295" />
  <use href="#clusterStarWhiteTemplate" x="410" y="270" />
  <use href="#clusterStarTemplate" x="395" y="285" />
  <use href="#clusterStarWhiteTemplate" x="425" y="275" />
  <use href="#clusterStarTemplate" x="385" y="280" />
  <use href="#clusterStarWhiteTemplate" x="415" y="285" />

  <!-- Cluster 2 -->
  <use href="#clusterStarTemplate" x="590" y="285" />
  <use href="#clusterStarWhiteTemplate" x="610" y="295" />
  <use href="#clusterStarTemplate" x="585" y="290" />
  <use href="#clusterStarWhiteTemplate" x="615" y="300" />
  <use href="#clusterStarTemplate" x="595" y="288" />
  <use href="#clusterStarWhiteTemplate" x="605" y="302" />
  <use href="#clusterStarTemplate" x="580" y="292" />
  <use href="#clusterStarWhiteTemplate" x="620" y="298" />

  <!-- Cluster 3 -->
  <use href="#clusterStarTemplate" x="440" y="85" />
  <use href="#clusterStarWhiteTemplate" x="460" y="95" />
  <use href="#clusterStarTemplate" x="420" y="90" />
  <use href="#clusterStarWhiteTemplate" x="470" y="100" />
  <use href="#clusterStarTemplate" x="430" y="88" />
  <use href="#clusterStarWhiteTemplate" x="450" y="102" />
  <use href="#clusterStarTemplate" x="415" y="92" />
  <use href="#clusterStarWhiteTemplate" x="465" y="98" />
  <use href="#clusterStarTemplate" x="445" y="93" />
  <use href="#clusterStarWhiteTemplate" x="455" y="87" />
  <use href="#clusterStarTemplate" x="425" y="97" />
  <use href="#clusterStarWhiteTemplate" x="475" y="92" />

  <!-- Cluster 4 -->
  <use href="#clusterStarTemplate" x="50" y="120" />
  <use href="#clusterStarWhiteTemplate" x="70" y="130" />
  <use href="#clusterStarTemplate" x="40" y="125" />
  <use href="#clusterStarWhiteTemplate" x="80" y="135" />
  <use href="#clusterStarTemplate" x="60" y="128" />
  <use href="#clusterStarWhiteTemplate" x="75" y="140" />
  <use href="#clusterStarWhiteTemplate" x="85" y="138" />

  <!-- Cluster 5 -->
  <use href="#clusterStarTemplate" x="35" y="250" />
  <use href="#clusterStarWhiteTemplate" x="75" y="270" />
  <use href="#clusterStarTemplate" x="30" y="285" />
  <use href="#clusterStarWhiteTemplate" x="80" y="260" />
  <use href="#clusterStarTemplate" x="45" y="275" />
  <use href="#clusterStarWhiteTemplate" x="70" y="290" />
  <use href="#clusterStarWhiteTemplate" x="55" y="265" />

  <!-- Background Diffraction rays 1 -->
  <g transform="translate(80, 100), scale(0.33)" filter="url(#starGlow)">
    <use href="#diffractionRayMediumTemplate" class="diffraction-ray-group" style="opacity: 0; animation: flare-opacity 3s ease-in-out infinite, flare-scale 0.25s ease-in-out infinite, flare-rotate 18s linear infinite; animation-delay: 4s;" />
  </g>
</svg>